<svg xmlns="http://www.w3.org/2000/svg" width="30.374" height="30.374" viewBox="0 0 30.374 30.374">
    <path data-name="Path 460" d="M212.814 209.907a2.907 2.907 0 1 1-2.907-2.907 2.907 2.907 0 0 1 2.907 2.907zm0 0" transform="translate(-194.72 -194.72)" style="fill:#1b3664"/>
    <path data-name="Path 461" d="M149.433 137.495a2.888 2.888 0 0 0-1.655-1.655 4.825 4.825 0 0 0-1.619-.3c-.92-.042-1.2-.051-3.524-.051s-2.6.009-3.524.051a4.828 4.828 0 0 0-1.619.3 2.889 2.889 0 0 0-1.655 1.655 4.828 4.828 0 0 0-.3 1.619c-.042.92-.051 1.2-.051 3.524s.009 2.6.051 3.524a4.826 4.826 0 0 0 .3 1.619 2.888 2.888 0 0 0 1.655 1.655 4.82 4.82 0 0 0 1.619.3c.92.042 1.2.051 3.524.051s2.6-.009 3.524-.051a4.82 4.82 0 0 0 1.619-.3 2.888 2.888 0 0 0 1.655-1.655 4.83 4.83 0 0 0 .3-1.619c.042-.92.051-1.2.051-3.524s-.009-2.6-.051-3.524a4.819 4.819 0 0 0-.3-1.619zm-6.8 9.621a4.478 4.478 0 1 1 4.478-4.478 4.478 4.478 0 0 1-4.477 4.478zm4.655-8.087a1.047 1.047 0 1 1 1.047-1.047 1.047 1.047 0 0 1-1.046 1.047zm0 0" transform="translate(-127.447 -127.451)" style="fill:#1b3664"/>
    <path data-name="Path 462" d="M15.187 0a15.187 15.187 0 1 0 15.187 15.187A15.189 15.189 0 0 0 15.187 0zm8.668 18.782a6.4 6.4 0 0 1-.405 2.118 4.459 4.459 0 0 1-2.55 2.55 6.4 6.4 0 0 1-2.117.405c-.93.042-1.227.053-3.6.053s-2.665-.01-3.6-.053a6.4 6.4 0 0 1-2.117-.405 4.459 4.459 0 0 1-2.541-2.55 6.4 6.4 0 0 1-.405-2.117c-.043-.93-.053-1.227-.053-3.6s.01-2.665.053-3.6a6.4 6.4 0 0 1 .405-2.117 4.462 4.462 0 0 1 2.551-2.55 6.4 6.4 0 0 1 2.117-.405c.93-.042 1.227-.053 3.6-.053s2.665.01 3.6.053a6.406 6.406 0 0 1 2.117.4 4.46 4.46 0 0 1 2.54 2.564 6.4 6.4 0 0 1 .406 2.117c.042.93.052 1.227.052 3.6s-.008 2.66-.053 3.59zm0 0" style="fill:#1b3664"/>
</svg>
