<svg xmlns="http://www.w3.org/2000/svg" viewBox="0 0 473 473"><defs><style>.cls-1{fill:#1b3664;}</style></defs><g id="Layer_2" data-name="Layer 2"><g id="tiktok"><path class="cls-1" d="M236.5,0C105.88,0,0,105.88,0,236.5S105.88,473,236.5,473,473,367.12,473,236.5,367.12,0,236.5,0ZM360.85,211.56c-26.27.1-49.75-8.22-71.5-24.15V192c.12,32.27.32,64.54.35,96.81,0,28.19-10.72,51.56-32.55,69.42-48,39.26-121.35,17.85-140.74-40.9-14.57-44.14,9.49-93.27,53.33-109a91.79,91.79,0,0,1,40.66-5.16c2.76.28,4.06,1,4,4.16-.19,13.18-.08,26.36-.09,39.54,0,1.09-.09,2.18-.16,3.73-11-3.11-21.16-2.59-31.07,2.06-16,7.51-26.15,25.48-23.71,42.25,2.88,19.69,16.84,34,35.45,36.93,22.73,3.63,48.56-13.51,48.28-43.19-.26-27.1,0-54.2,0-81.3q0-54,0-107.9V94.88h46.08c.86,19.44,7.57,36.35,21.46,50s30.55,20.29,50.17,20.79Z"/></g></g></svg>