<svg xmlns="http://www.w3.org/2000/svg" width="30.318" height="30.317" viewBox="0 0 30.318 30.317">
    <path data-name="Path 464" d="M15.159 0a15.159 15.159 0 1 0 15.159 15.159A15.16 15.16 0 0 0 15.159 0zm.321 23.985a9.069 9.069 0 0 1-4.336-1.1l-4.81 1.261 1.287-4.7a9.073 9.073 0 1 1 7.862 4.543zm0 0" style="fill:#1b3664"/>
    <path data-name="Path 465" d="M141.615 124.469a7.542 7.542 0 0 0-6.391 11.55l.179.285-.762 2.782 2.854-.748.275.163a7.529 7.529 0 0 0 3.838 1.051 7.541 7.541 0 0 0 0-15.082zm4.436 10.779a2.336 2.336 0 0 1-1.53 1.078 3.111 3.111 0 0 1-1.428-.09 13.088 13.088 0 0 1-1.293-.477 10.1 10.1 0 0 1-3.873-3.422 4.408 4.408 0 0 1-.926-2.344 2.541 2.541 0 0 1 .793-1.89.833.833 0 0 1 .6-.284c.151 0 .3 0 .434.008s.326-.053.51.389.642 1.569.7 1.682a.418.418 0 0 1 .019.4 6.459 6.459 0 0 1-.567.775c-.1.125-.232.236-.1.463a6.833 6.833 0 0 0 1.261 1.57 6.2 6.2 0 0 0 1.823 1.125c.226.113.359.094.491-.057s.567-.662.718-.889.3-.189.51-.113 1.322.624 1.549.737.378.17.434.265a1.891 1.891 0 0 1-.125 1.074zm0 0" transform="translate(-126.132 -117.099)" style="fill:#1b3664"/>
</svg>
