<svg xmlns="http://www.w3.org/2000/svg" width="30.378" height="30.378" viewBox="0 0 30.378 30.378">
    <path data-name="Path 466" d="m224.113 213.73 4.941-2.846-4.941-2.846zm0 0" transform="translate(-210.816 -195.696)" style="fill:#1b3664"/>
    <path data-name="Path 467" d="M15.189 0a15.189 15.189 0 1 0 15.189 15.189A15.191 15.191 0 0 0 15.189 0zm9.491 15.2a25.069 25.069 0 0 1-.391 4.566 2.378 2.378 0 0 1-1.673 1.673 57.731 57.731 0 0 1-7.427.391s-5.926 0-7.427-.407a2.379 2.379 0 0 1-1.673-1.673 24.959 24.959 0 0 1-.389-4.561 25.052 25.052 0 0 1 .391-4.566 2.427 2.427 0 0 1 1.671-1.688 57.731 57.731 0 0 1 7.427-.391s5.942 0 7.427.407a2.379 2.379 0 0 1 1.673 1.673 23.79 23.79 0 0 1 .391 4.576zm0 0" style="fill:#1b3664"/>
</svg>
