<svg xmlns="http://www.w3.org/2000/svg" width="64" height="64" viewBox="0 0 64 64">
    <path data-name="Path 519" d="M63.513 18.744 45.256.486A1.66 1.66 0 0 0 44.082 0H11.274A11.287 11.287 0 0 0 0 11.274v41.452A11.287 11.287 0 0 0 11.274 64h41.452A11.287 11.287 0 0 0 64 52.726V19.917a1.662 1.662 0 0 0-.487-1.173zM45.465 5.391l13.143 13.143H45.465zm7.26 55.288H11.274a7.963 7.963 0 0 1-7.954-7.954V11.274a7.963 7.963 0 0 1 7.954-7.954h30.871v16.874a1.66 1.66 0 0 0 1.66 1.66h16.874v30.871a7.963 7.963 0 0 1-7.954 7.954z" style="fill:#1b3664"/>
    <path data-name="Path 520" d="M65.48 45.819a8.6 8.6 0 1 0-12.162 12.16l17.037 17.034a5.648 5.648 0 0 0 7.989-7.987L61.476 50.161a1.661 1.661 0 0 0-2.349 2.349l16.868 16.865a2.326 2.326 0 0 1-3.29 3.29L55.668 55.631a5.277 5.277 0 0 1 7.463-7.462l17.85 17.848A8.213 8.213 0 0 1 69.367 77.63L55.642 63.907a1.661 1.661 0 0 0-2.349 2.349l13.725 13.723a11.535 11.535 0 1 0 16.313-16.312L65.48 45.819z" transform="translate(-36.755 -31.329)" style="fill:#1b3664"/>
</svg>
