<svg xmlns="http://www.w3.org/2000/svg" width="12.347" height="11.458" viewBox="0 0 12.347 11.458">
    <path data-name="Icon material-favorite-border" d="M11.589 4.5a3.547 3.547 0 0 0-2.665 1.238A3.547 3.547 0 0 0 6.258 4.5 3.226 3.226 0 0 0 3 7.758C3 10 5.014 11.822 8.065 14.594l.859.776.859-.782c3.051-2.766 5.065-4.591 5.065-6.83A3.226 3.226 0 0 0 11.589 4.5zm-2.606 9.211-.059.059-.059-.059c-2.82-2.553-4.68-4.241-4.68-5.953a2.025 2.025 0 0 1 2.073-2.073 2.316 2.316 0 0 1 2.115 1.4h1.108a2.3 2.3 0 0 1 2.109-1.4 2.025 2.025 0 0 1 2.073 2.073c0 1.712-1.863 3.4-4.68 5.953z" transform="translate(-2.75 -4.25)" style="stroke:#e2e2e2;stroke-width:.5px"/>
</svg>
