<svg xmlns="http://www.w3.org/2000/svg" width="28" height="28" viewBox="0 0 28 28">
    <g data-name="Rectangle 412" style="fill:#fff;stroke:#54688b">
        <rect width="28" height="28" rx="8" style="stroke:none"/>
        <rect x=".5" y=".5" width="27" height="27" rx="7.5" style="fill:none"/>
    </g>
    <path data-name="Path 2793" d="M6630.446 6190h-4.637a3.814 3.814 0 0 0-3.809 3.818v4.633a3.814 3.814 0 0 0 3.809 3.8h4.637a3.814 3.814 0 0 0 3.81-3.8v-4.633a3.815 3.815 0 0 0-3.81-3.818zm1.394 2.9a.469.469 0 0 0-.938 0 .469.469 0 1 0 .938 0zm-3.713.207a3.033 3.033 0 1 0 0 6.065 2.981 2.981 0 0 0 2.139-.9 3.01 3.01 0 0 0 0-4.288 2.971 2.971 0 0 0-2.139-.884zm0 5.018a1.992 1.992 0 0 1-1.407-.593 1.987 1.987 0 1 1 2.815 0 1.993 1.993 0 0 1-1.408.588zm5.08.331a2.694 2.694 0 0 1-.815 1.944 2.756 2.756 0 0 1-1.946.813h-4.637a2.815 2.815 0 0 1-1.96-.813 2.739 2.739 0 0 1-.8-1.944v-4.633a2.747 2.747 0 0 1 .8-1.957 2.813 2.813 0 0 1 1.96-.813h4.637a2.754 2.754 0 0 1 1.946.813 2.7 2.7 0 0 1 .815 1.957z" transform="translate(-6613.907 -6182.897)" style="fill:#1b3664;fill-rule:evenodd"/>
</svg>
