<svg xmlns="http://www.w3.org/2000/svg" width="28" height="28" viewBox="0 0 28 28">
    <g data-name="Rectangle 412" style="fill:#fff;stroke:#54688b">
        <rect width="28" height="28" rx="8" style="stroke:none"/>
        <rect x=".5" y=".5" width="27" height="27" rx="7.5" style="fill:none"/>
    </g>
    <path d="M7.855 10.092a.668.668 0 0 0 0-.945 1.878 1.878 0 0 1 0-2.656l2.251-2.25A1.878 1.878 0 0 1 12.762 6.9l-.7.7a.668.668 0 0 0 .945.945l.7-.7A3.215 3.215 0 1 0 9.161 3.3L6.91 5.546a3.215 3.215 0 0 0 0 4.546.669.669 0 0 0 .945 0zm1.3-3.2a.668.668 0 0 0 0 .945 1.878 1.878 0 0 1 0 2.656l-2.223 2.233a1.878 1.878 0 1 1-2.655-2.656l.653-.652a.668.668 0 1 0-.945-.945l-.652.652a3.215 3.215 0 0 0 4.546 4.546l2.228-2.228a3.215 3.215 0 0 0 0-4.546.668.668 0 0 0-.945 0z" transform="translate(5.949 5.577)" style="fill:#1b3664;fill-rule:evenodd"/>
</svg>
