<svg xmlns="http://www.w3.org/2000/svg" width="16.074" height="16.074" viewBox="0 0 16.074 16.074">
    <g data-name="Group 58">
        <g data-name="Group 57">
            <path data-name="Path 2685" d="M14.806 11.859h-.267a1.283 1.283 0 0 0 .24-.8V6.5a1.326 1.326 0 0 0-1.34-1.34h-1.044a.253.253 0 0 0-.268-.268H10.52a.253.253 0 0 0-.268.268h-.267a1.283 1.283 0 0 0 .24-.8V.607a1.326 1.326 0 0 0-1.34-1.34h-.776A.253.253 0 0 0 7.841-1H6.233a.253.253 0 0 0-.268.268h-.8A1.326 1.326 0 0 0 3.822.607v2.947H2.483a.253.253 0 0 0-.268.268H.607a1.326 1.326 0 0 0-1.34 1.34v5.894a1.343 1.343 0 0 0 .262.8h-.261a.253.253 0 0 0-.268.271v1.607A.253.253 0 0 0-.732 14h.268v.8a.253.253 0 0 0 .268.268h2.143a.253.253 0 0 0 .268-.268V14H5.7v.8a.253.253 0 0 0 .268.268h2.141a.253.253 0 0 0 .268-.268V14h3.483v.8a.253.253 0 0 0 .268.268h2.142a.253.253 0 0 0 .268-.268V14h.268a.253.253 0 0 0 .268-.268v-1.605a.253.253 0 0 0-.268-.268zM11.832 5.43V6.8l-.375-.268a.29.29 0 0 0-.295 0l-.375.268V5.43zm-1.42 2.09a.243.243 0 0 0 .268 0l.643-.429.67.455a.243.243 0 0 0 .268 0 .281.281 0 0 0 .134-.241V5.7h1.072a.789.789 0 0 1 .8.8v4.554a.789.789 0 0 1-.8.8H8.115a1.339 1.339 0 0 0 .26-.746V5.7h1.875v1.6a.2.2 0 0 0 .163.219zM7.546-.464V.9L7.171.634a.29.29 0 0 0-.295 0L6.5.9V-.464h1.046zM4.358.607a.789.789 0 0 1 .8-.8h.8v1.604a.2.2 0 0 0 .161.214.243.243 0 0 0 .268 0l.65-.425.67.455a.243.243 0 0 0 .268 0 .281.281 0 0 0 .134-.241V-.2h.8a.789.789 0 0 1 .8.8v3.758a.789.789 0 0 1-.8.8h-.533a1.326 1.326 0 0 0-1.34-1.34H5.43a.253.253 0 0 0-.268-.268h-.8V.607zM4.09 4.09h.8v2.116l-.911-.723a.244.244 0 0 0-.321 0l-.911.723V4.09zM-.2 11.055V5.162a.789.789 0 0 1 .8-.8h1.615v2.407a.281.281 0 0 0 .134.241.287.287 0 0 0 .295-.027l1.179-.938 1.152.938a.335.335 0 0 0 .233.051.106.106 0 0 0 .062-.025.257.257 0 0 0 .161-.241v-2.41h1.606a.789.789 0 0 1 .8.8v5.894a.789.789 0 0 1-.8.8H.607a.789.789 0 0 1-.807-.797zm1.875 3.483H.072V14h1.607zm6.162 0H6.233V14h1.608zm6.162 0h-1.604V14H14zm.536-1.072h-15v-1.071h15v1.072z" transform="translate(1 1)" style="fill:#1b3664"/>
            <path data-name="Path 2686" d="M213.941 374.735a.253.253 0 0 0-.268-.268H212.6a.268.268 0 0 0 0 .536h1.072a.253.253 0 0 0 .269-.268z" transform="translate(-205.636 -362.679)" style="fill:#1b3664"/>
            <path data-name="Path 2687" d="M197.41 340.6a.253.253 0 0 0-.268-.268h-1.607a.268.268 0 1 0 0 .536h1.607a.253.253 0 0 0 .268-.268z" transform="translate(-189.105 -329.618)" style="fill:#1b3664"/>
            <path data-name="Path 2688" d="M435 383h-.536a.268.268 0 1 0 0 .536H435a.268.268 0 1 0 0-.536z" transform="translate(-420.537 -370.945)" style="fill:#1b3664"/>
            <path data-name="Path 2689" d="M417.4 357.937h1.072a.268.268 0 0 0 0-.536H417.4a.268.268 0 1 0 0 .536z" transform="translate(-404.007 -346.149)" style="fill:#1b3664"/>
        </g>
    </g>
</svg>
