<svg xmlns="http://www.w3.org/2000/svg" width="64" height="64" viewBox="0 0 64 64">
    <path data-name="Path 521" d="M53.088 0H10.915A10.932 10.932 0 0 0 0 10.914v42.173A10.927 10.927 0 0 0 10.914 64h42.174A10.928 10.928 0 0 0 64 53.087V10.914A10.925 10.925 0 0 0 53.088 0zM7.6 2.639a10.846 10.846 0 0 0-3.88 8.275v.558H1.987v-.558A8.914 8.914 0 0 1 7.6 2.639zM1.985 52.094V40.126h1.737v11.968H1.985zm0-13.954V26.483h1.737v11.658H1.985zm0-13.644V13.459h1.737V24.5zm.1 29.581H3.82a10.822 10.822 0 0 0 3.78 7.285 8.912 8.912 0 0 1-5.516-7.284zm3.721 0h3.447a4.8 4.8 0 1 0 0-1.994H5.706V40.116h3.55a4.793 4.793 0 1 0 0-1.99h-3.55V26.471h3.55a4.795 4.795 0 1 0 0-1.994h-3.55V13.44h3.55a4.791 4.791 0 1 0 0-1.991h-3.55v-.533a8.943 8.943 0 0 1 8.93-8.93h6.45v60.031h-6.45A8.917 8.917 0 0 1 5.8 54.078zm5.527-1.984a2.806 2.806 0 1 1 0 2h2.6v-1.998h-2.6zm0-13.954a2.807 2.807 0 1 1 0 1.994h2.6v-1.984h-2.6zm0-13.644a2.805 2.805 0 1 1 0 1.993h2.6V24.5h-2.6zm0-13.023a2.807 2.807 0 1 1 0 1.994h2.6v-1.985h-2.601zm50.684 41.615a8.942 8.942 0 0 1-8.928 8.929H23.07V1.984h30.018a8.938 8.938 0 0 1 8.928 8.93v42.173zm-5.175-13.8H28.786V37.3h28.056zm-.08-6.121H28.789v-1.99h27.973zm.08 12.249H28.786v-1.986h28.056zM29.134 18.582h4.326a3.92 3.92 0 0 1 2.69.825 3.1 3.1 0 0 1 .92 2.414 3.321 3.321 0 0 1-.92 2.535 3.792 3.792 0 0 1-2.69.871q-1.251-.006-2.167.015v3.676H29.13V18.581zm2.157 4.864h1.8a2.013 2.013 0 0 0 1.363-.4 1.533 1.533 0 0 0 .452-1.205 1.353 1.353 0 0 0-.452-1.11 2.128 2.128 0 0 0-1.363-.367h-1.8v3.081zm7.446-4.864h4.429a4.112 4.112 0 0 1 3.244 1.253 5.384 5.384 0 0 1 1.1 3.667 6.157 6.157 0 0 1-1.149 4.038 4.139 4.139 0 0 1-3.37 1.384h-4.255V18.582zm2.163 8.557h1.819a2.31 2.31 0 0 0 1.974-.884 4.509 4.509 0 0 0 .658-2.67 3.983 3.983 0 0 0-.615-2.419 2.148 2.148 0 0 0-1.836-.8h-2zm8.245 1.78V18.582H56.5v1.836h-5.2v2.346h4.531v1.778H51.3v4.372h-2.157z" style="fill:#1b3664"/>
</svg>
