<svg xmlns="http://www.w3.org/2000/svg" width="14.954" height="14.206" viewBox="0 0 14.954 14.206">
    <g data-name="Group 47">
        <g data-name="Group 46">
            <path data-name="Path 770" d="M33.571 47.158a1 1 0 1 0-1-1 1 1 0 0 0 1 1zm0-1.5a.5.5 0 1 1-.5.5.5.5 0 0 1 .5-.496z" transform="translate(-31.577 -44.167)" style="fill:#1b3664"/>
            <path data-name="Path 771" d="M33.571 372.508a1 1 0 1 0 1 1 1 1 0 0 0-1-1zm0 1.5a.5.5 0 1 1 .5-.5.5.5 0 0 1-.5.492z" transform="translate(-31.577 -361.791)" style="fill:#1b3664"/>
            <path data-name="Path 772" d="M382.707 374.87a1.076 1.076 0 0 0 .648.224h.075a.988.988 0 1 0-.723-.224zm.274-1.072a.448.448 0 0 1 .374-.174.413.413 0 0 1 .324.125.506.506 0 0 1 .05.7.426.426 0 0 1-.324.174.612.612 0 0 1-.374-.125.506.506 0 0 1-.05-.698z" transform="translate(-370.968 -362.384)" style="fill:#1b3664"/>
            <path data-name="Path 773" d="M13.206 15.578a.734.734 0 0 0 .748-.748v-2.492a.734.734 0 0 0-.748-.748H-.4a.606.606 0 0 0-.6.6v2.791a.606.606 0 0 0 .328.531l.021.018 5.857 5.056a.331.331 0 0 0 .025.028.122.122 0 0 0 .032.021l.685.591a.334.334 0 0 0 .031.036.134.134 0 0 0 .038.023l.031.026H-.4a.606.606 0 0 0-.6.6V24.7a.606.606 0 0 0 .6.6h11.066l.346.3a.8.8 0 0 0 .523.2c.025 0 .05 0 .05-.025a.7.7 0 0 0 .548-.274l.167-.2h.9a.734.734 0 0 0 .748-.748v-2.52a.734.734 0 0 0-.748-.748h-1.133l-6.8-5.707h7.939zM-.5 12.188a.107.107 0 0 1 .1-.1h3.14v.748a.249.249 0 0 0 .5 0v-.748h.5v1.246a.249.249 0 0 0 .5 0v-1.246h.5v.748a.249.249 0 0 0 .5 0v-.748h.5v1.246a.249.249 0 0 0 .5 0v-1.246h.5v.748a.249.249 0 1 0 .5 0v-.748h.5v1.246a.249.249 0 0 0 .5 0v-1.246h.5v.748a.249.249 0 1 0 .5 0v-.748h.5v1.246a.249.249 0 0 0 .5 0v-1.246h.5v.748a.249.249 0 0 0 .5 0v-.748h.5v1.246a.249.249 0 1 0 .5 0v-1.246h1a.235.235 0 0 1 .249.249v2.493a.235.235 0 0 1-.249.249H-.4a.107.107 0 0 1-.1-.1v-2.791zM-.4 24.8a.111.111 0 0 1-.1-.075v-2.817a.107.107 0 0 1 .1-.1h3.14v.748a.249.249 0 1 0 .5 0v-.748h.5v1.246a.249.249 0 0 0 .5 0v-1.246h.5v.748a.249.249 0 1 0 .5 0v-.748h.5v1.246a.249.249 0 0 0 .5 0v-1.246h.4l.065.056a.328.328 0 0 0 .036.043.144.144 0 0 0 .044.026l3.304 2.867zm13.857-.249a.235.235 0 0 1-.249.249h-.449l.7-.847v.6zm-.249-2.741a.235.235 0 0 1 .249.249v.393l-.765-.642h.516zm.224 1.271a.021.021 0 0 1 .016.006.143.143 0 0 1-.016.094l-1.422 1.693a.327.327 0 0 0-.035.068l-.215.256a.308.308 0 0 1-.2.1.348.348 0 0 1-.224-.075l-.344-.3a.291.291 0 0 0-.055-.077l-2.17-1.875.749-.891a.247.247 0 1 0-.374-.324l-.75.892-.376-.325.428-.517a.247.247 0 1 0-.374-.324L7.644 22l-.388-.335.716-.855a.247.247 0 0 0-.374-.324l-.721.861-.045-.017-.342-.3.41-.5a.247.247 0 0 0-.374-.324l-.41.5-.394-.341.755-.857a.247.247 0 0 0-.374-.324l-.734.876-.389-.336.4-.491a.247.247 0 0 0-.374-.324l-.4.491-.387-.334.712-.855a.247.247 0 0 0-.374-.324l-.713.855-.373-.322.388-.459a.247.247 0 0 0-.374-.324l-.389.459-.376-.325.69-.832a.247.247 0 0 0-.374-.324l-.69.833-.377-.325.369-.457a.268.268 0 0 0-.05-.349.268.268 0 0 0-.349.05l-.356.424-1.412-1.213h4.312z" transform="translate(1 -11.59)" style="fill:#1b3664"/>
        </g>
    </g>
</svg>
