<svg xmlns="http://www.w3.org/2000/svg" width="28" height="28" viewBox="0 0 28 28">
    <g data-name="Rectangle 412" style="fill:#fff;stroke:#54688b">
        <rect width="28" height="28" rx="8" style="stroke:none"/>
        <rect x=".5" y=".5" width="27" height="27" rx="7.5" style="fill:none"/>
    </g>
    <path d="M7.411 4.363A1.982 1.982 0 0 0 9.44 2.427 1.982 1.982 0 0 0 7.411.5a1.982 1.982 0 0 0-2.075 1.927 1.788 1.788 0 0 0 .2.834L3.057 5.743a2.029 2.029 0 0 0-1.028-.278A1.982 1.982 0 0 0 0 7.448 1.982 1.982 0 0 0 2.029 9.3a1.982 1.982 0 0 0 .926-.213l2.566 2.575a1.908 1.908 0 0 0-.167.769A1.982 1.982 0 0 0 7.411 14.4a1.936 1.936 0 1 0 0-3.863 2.084 2.084 0 0 0-1.093.306L3.789 8.374a1.64 1.64 0 0 0 .139-.287h6.966a2.029 2.029 0 0 0 1.9 1.214 1.982 1.982 0 0 0 2.029-1.853 2.038 2.038 0 0 0-3.983-.482H3.983a1.612 1.612 0 0 0-.13-.352l2.473-2.52a2.158 2.158 0 0 0 1.085.269zm0-1.149a.824.824 0 0 0 .871-.787.824.824 0 0 0-.871-.778.824.824 0 0 0-.926.778.824.824 0 0 0 .926.787zM2.029 8.189a.834.834 0 0 0 .871-.741.834.834 0 0 0-.871-.778.834.834 0 0 0-.88.778.843.843 0 0 0 .88.741zm11.645-.741a.926.926 0 0 1-1.751 0 .926.926 0 0 1 1.751 0zm-5.438 5.021a.824.824 0 0 1-.871.778.787.787 0 1 1 0-1.566.824.824 0 0 1 .871.787z" transform="translate(7.533 6.794)" style="fill:#1b3664;fill-rule:evenodd"/>
</svg>
