<svg xmlns="http://www.w3.org/2000/svg" width="28" height="27" viewBox="0 0 28 27">
    <g data-name="Rectangle 412" style="fill:#fff;stroke:#54688b">
        <rect width="28" height="27" rx="8" style="stroke:none"/>
        <rect x=".5" y=".5" width="27" height="26" rx="7.5" style="fill:none"/>
    </g>
    <path data-name="Path 10" d="M3511.531 514.106a.286.286 0 0 1-.1-.013.115.115 0 0 1-.064.013 2.844 2.844 0 0 1-1.733-.685 2.543 2.543 0 0 0-1-.517 3.659 3.659 0 0 0-.53-.039 4.587 4.587 0 0 0-.724.078 1.14 1.14 0 0 1-.272.039.161.161 0 0 1-.181-.129c-.039-.1-.052-.207-.078-.3-.052-.246-.09-.4-.194-.414-1.216-.194-1.565-.453-1.642-.634a.161.161 0 0 1-.013-.078.139.139 0 0 1 .117-.142 3.971 3.971 0 0 0 2.729-2.289.673.673 0 0 0 .065-.595c-.129-.31-.543-.44-.815-.53-.065-.013-.129-.039-.181-.052-.556-.22-.595-.44-.582-.556a.532.532 0 0 1 .517-.336.26.26 0 0 1 .142.039 1.6 1.6 0 0 0 .66.168c.271 0 .388-.1.4-.129 0-.116-.013-.259-.026-.388a6.719 6.719 0 0 1 .155-2.6 3.375 3.375 0 0 1 3.13-2.018h.259a3.379 3.379 0 0 1 3.143 2.018 6.494 6.494 0 0 1 .142 2.6v.039c0 .116-.013.246-.013.349a.536.536 0 0 0 .362.129 1.6 1.6 0 0 0 .621-.168.371.371 0 0 1 .194-.039.6.6 0 0 1 .22.039h.013a.425.425 0 0 1 .31.336c0 .129-.1.323-.582.517-.052.013-.116.039-.181.052-.285.091-.7.22-.828.53a.73.73 0 0 0 .077.595 3.938 3.938 0 0 0 2.729 2.289.151.151 0 0 1 .116.142.181.181 0 0 1-.026.078c-.077.181-.414.44-1.629.634-.1.013-.142.142-.194.414a8.476 8.476 0 0 0-.078.3.167.167 0 0 1-.168.129h-.013a1.238 1.238 0 0 1-.272-.039 3.788 3.788 0 0 0-.737-.078 3.489 3.489 0 0 0-.517.039 2.68 2.68 0 0 0-1.009.517 2.776 2.776 0 0 1-1.72.685z" transform="translate(-3496.861 -494.79)" style="fill:#1b3664;fill-rule:evenodd"/>
</svg>
